<svg id="Capa_1" enable-background="new 0 0 512 512" viewBox="0 0 512 512" height="28" width="28" xmlns="http://www.w3.org/2000/svg" xmlns:xlink="http://www.w3.org/1999/xlink"><linearGradient id="SVGID_1_" gradientUnits="userSpaceOnUse" x1="256" x2="256" y1="482" y2="0"><stop offset="0" stop-color="#9854FF"/><stop offset="1" stop-color="#C096FF"/></linearGradient><linearGradient id="SVGID_00000091714728462168052490000003471714243489501354_" gradientUnits="userSpaceOnUse" x1="270" x2="270" y1="512" y2="32"><stop offset="0" stop-color="#C096FF"/><stop offset="1" stop-color="#C096FF"/></linearGradient><g><g><g><path d="m465 122h-90c-8.401 0-15 6.599-15 15v75h-150v-75c0-8.401-6.599-15-15-15h-85.499l-15.301-85.101c-4.2-21.3-22.5-36.899-44.101-36.899h-35.099c-8.401 0-15 6.599-15 15 0 8.399 6.599 15 15 15h35.099c7.2 0 13.2 5.1 14.7 12.299.547 3.02 55.698 309.293 52.202 290.001-31.502 1.5-57.001 27.6-57.001 59.7 0 32.999 27.001 60 60 60h2.701l42.299 30 42.299-30h125.402l42.299 30 42.299-30h17.701c8.401 0 15-6.601 15-15 0-8.401-6.599-15-15-15h-315c-16.5 0-30-13.5-30-30s13.5-30 30-30h315c7.5 0 13.801-5.4 15-12.9l30-210c.601-4.2-.901-8.701-3.6-12-2.999-3.3-7.2-5.1-11.4-5.1zm-135-15-30-75h-30l-30 75 45 45zm167-77h-15v-15c0-8.291-6.709-15-15-15s-15 6.709-15 15v15h-15c-8.291 0-15 6.709-15 15s6.709 15 15 15h15v15c0 8.291 6.709 15 15 15s15-6.709 15-15v-15h15c8.291 0 15-6.709 15-15s-6.709-15-15-15z" fill="url(#SVGID_1_)"/></g></g><g><g><path d="m122.701 452c-1.8 4.799-2.701 9.6-2.701 15 0 24.899 20.099 45 45 45s45-20.101 45-45c0-5.4-.901-10.201-2.701-15zm294.598 0h-84.598c-1.8 4.799-2.701 9.6-2.701 15 0 24.899 20.099 45 45 45s45-20.101 45-45c0-5.4-.901-10.201-2.701-15zm-222.299-210h180c8.401 0 15-6.601 15-15v-180c0-8.401-6.599-15-15-15h-75v75c0 8.399-6.599 15-15 15s-15-6.601-15-15v-75h-75c-8.401 0-15 6.599-15 15v180c0 8.399 6.599 15 15 15z" fill="url(#SVGID_00000091714728462168052490000003471714243489501354_)"/></g></g></g></svg>