<?xml version="1.0"?>
<svg xmlns="http://www.w3.org/2000/svg" viewBox="0 0 88 88" height="28" width="28" fill="#9854FF"><g id="Shop_cart" data-name="Shop cart"><path d="M19,67H72a1,1,0,0,0,.95-.69l10-31A.9962.9962,0,0,0,82,34H72.97a17.9977,17.9977,0,0,1-35.94,0H28.16L26.6,21.85l-.61-4A1.023,1.023,0,0,0,25,17H8a3,3,0,0,0,0,6H24.7313c2.1276,16.6227.51,5.2863,6.1035,42H19a5,5,0,0,0,0,10h10.11a7,7,0,1,0,9.779,0H69.1107A6.9931,6.9931,0,1,0,74,73H19a3,3,0,0,1,0-6ZM34,83a3,3,0,1,1,3-3A3.0033,3.0033,0,0,1,34,83Zm43-3a3,3,0,1,1-3-3A3.0033,3.0033,0,0,1,77,80Z"/><circle cx="34" cy="80" r="1"/><circle cx="74" cy="80" r="1"/><path d="M55,43A10,10,0,1,0,45,33,10.0117,10.0117,0,0,0,55,43ZM51.9189,32.5781A3.4725,3.4725,0,0,1,53.4717,26H54V25a1,1,0,0,1,2,0v1h.5283A3.4759,3.4759,0,0,1,60,29.4717a1,1,0,0,1-2,0A1.4734,1.4734,0,0,0,56.5283,28H56v4.3817l2.0811,1.04A3.4725,3.4725,0,0,1,56.5283,40H56v1a1,1,0,0,1-2,0V40h-.5283A3.4759,3.4759,0,0,1,50,36.5283a1,1,0,0,1,2,0A1.4734,1.4734,0,0,0,53.4717,38H54V33.6183Z"/><path d="M58,36.5283a1.4645,1.4645,0,0,0-.8135-1.3174L56,34.6179V38h.5283A1.4734,1.4734,0,0,0,58,36.5283Z"/><path d="M54,28h-.5283a1.4724,1.4724,0,0,0-.6582,2.7891L54,31.3821Z"/><path d="M55,49A16,16,0,1,0,39,33,16.0183,16.0183,0,0,0,55,49Zm0-28A12,12,0,1,1,43,33,12.0131,12.0131,0,0,1,55,21Z"/><path d="M55,14a1,1,0,0,0,1-1V2a1,1,0,0,0-2,0V13A1,1,0,0,0,55,14Z"/><path d="M61,16a1,1,0,0,0,1-1V7a1,1,0,0,0-2,0v8A1,1,0,0,0,61,16Z"/><path d="M49,16a1,1,0,0,0,1-1V7a1,1,0,0,0-2,0v8A1,1,0,0,0,49,16Z"/></g></svg>
