<svg viewBox="0 0 24 24" height="28" width="28" xmlns="http://www.w3.org/2000/svg"><g id="Layer_2" data-name="Layer 2"><path d="m3 13a1 1 0 0 1 -.77-.36 1 1 0 0 1 .13-1.41l5.3-4.41a2 2 0 0 1 2.69.12l1.65 1.69 8.3-7.38a1 1 0 1 1 1.32 1.5l-8.29 7.37a2 2 0 0 1 -2.7-.12l-1.69-1.65-5.3 4.42a1 1 0 0 1 -.64.23z" fill="#C096FF"/><path d="m21 6a1 1 0 0 1 -1-1v-2h-2a1 1 0 0 1 0-2h3a1 1 0 0 1 1 1v3a1 1 0 0 1 -1 1z" fill="#C096FF"/><g fill="#9854FF"><path d="m16 23a1 1 0 0 1 -1-1v-10a1 1 0 0 1 2 0v10a1 1 0 0 1 -1 1z"/><path d="m20 23a1 1 0 0 1 -1-1v-13a1 1 0 0 1 2 0v13a1 1 0 0 1 -1 1z"/><path d="m12 23a1 1 0 0 1 -1-1v-8a1 1 0 0 1 2 0v8a1 1 0 0 1 -1 1z"/><path d="m8 23a1 1 0 0 1 -1-1v-6a1 1 0 0 1 2 0v6a1 1 0 0 1 -1 1z"/><path d="m4 23a1 1 0 0 1 -1-1v-4a1 1 0 0 1 2 0v4a1 1 0 0 1 -1 1z"/></g></g></svg>