<svg fill="none" viewBox="0 0 64 64" height="28" width="28" fill="#9854FF" xmlns="http://www.w3.org/2000/svg"
    xmlns:xlink="http://www.w3.org/1999/xlink">
    <linearGradient id="paint0_linear_1_2610" gradientUnits="userSpaceOnUse" x1="32.004" x2="32.004" y1="1.2" y2="62.8">
        <stop offset="0" stop-color="#9854FF" />
        <stop offset="1" stop-color="#9854FF" />
    </linearGradient>
    <g fill="url(#paint0_linear_1_2610)">
        <path
            d="m61 30.2999c-1 0-1.8.8-1.8 1.8v19.5c0 4.4-3.2 7.8001-7.3 7.8001h-39.8c-4.10001 0-7.30001-3.4001-7.30001-7.8001v-19.5999c0-1-.8-1.8-1.8-1.8s-1.7.8-1.7 1.8v19.5c0 6.2 4.9 11.2999 10.80001 11.2999h39.8c6 0 10.8-5.0999 10.8-11.2999v-19.5c.1-1-.7-1.7001-1.7-1.7001z" />
        <path
            d="m28.7 41.7c.9.9 2.1 1.3 3.3 1.3s2.3-.4 3.2-1.3l8.6-8.5c.7-.7.7-1.8 0-2.5s-1.8-.7-2.5 0l-7.5 7.5v-35.20005c0-1-.8-1.8-1.8-1.8s-1.7.8-1.7 1.8v35.29995l-7.6-7.5999c-.7-.7-1.8-.7-2.5 0s-.7 1.8 0 2.5z" />
    </g>
</svg>