<svg id="Color" enable-background="new 0 0 24 24" viewBox="0 0 24 24" height="28" width="28"
    xmlns="http://www.w3.org/2000/svg">
    <path
        d="m22.25 0h-20.5c-.965 0-1.75.785-1.75 1.75v2.5c0 .965.785 1.75 1.75 1.75h20.5c.965 0 1.75-.785 1.75-1.75v-2.5c0-.965-.785-1.75-1.75-1.75z"
        fill="#C096FF" />
    <path
        d="m22.25 8h-20.5c-.96 0-1.75.79-1.75 1.75v12.5c0 .96.79 1.75 1.75 1.75h20.5c.96 0 1.75-.79 1.75-1.75v-12.5c0-.96-.79-1.75-1.75-1.75z"
        fill="#9854FF" />
    <path d="m12 0h-10.25c-.965 0-1.75.785-1.75 1.75v2.5c0 .965.785 1.75 1.75 1.75h10.25z" 
        fill="#9854FF" />
    <path
        d="m11 12.5c-1.38 0-2.5 1.12-2.5 2.5s1.12 2.5 2.5 2.5c.355 0 .694-.074 1-.208v-4.583c-.306-.135-.645-.209-1-.209zm1-4.5h-10.25c-.96 0-1.75.79-1.75 1.75v12.5c0 .96.79 1.75 1.75 1.75h10.25v-5.127c-.32.082-.656.127-1 .127-2.21 0-4-1.79-4-4s1.79-4 4-4c.345 0 .68.044 1 .126z"
        fill="#9854FF" />
    <path
        d="m15.78 18.72-1.471-1.47c.431-.64.691-1.42.691-2.25 0-2.21-1.79-4-4-4s-4 1.79-4 4 1.79 4 4 4c.83 0 1.61-.26 2.25-.69l1.47 1.47c.15.15.34.22.53.22s.38-.07.53-.22c.29-.29.29-.77 0-1.06zm-4.78-1.22c-1.38 0-2.5-1.12-2.5-2.5s1.12-2.5 2.5-2.5 2.5 1.12 2.5 2.5-1.12 2.5-2.5 2.5z"
        fill="#C096FF" />
    <path
        d="m8.18 12.163c-.729.724-1.18 1.728-1.18 2.837 0 2.21 1.79 4 4 4 .83 0 1.61-.26 2.25-.69l1.47 1.47c.15.15.34.22.53.22s.38-.07.53-.22c.003-.003.005-.005.008-.008l-3.012-3.013c-.454.458-1.082.741-1.776.741-1.38 0-2.5-1.12-2.5-2.5 0-.694.283-1.323.741-1.776z"
        fill="#C096FF" />
</svg>