<svg viewBox="0 0 88 88" height="28" width="28" fill="#9854FF" xmlns="http://www.w3.org/2000/svg"><g id="Email_Money" data-name="Email Money"><path d="m56.367 65.234 22.633 19.305v-36.035z"/><path d="m9 48.504v36.035l22.633-19.305z"/><path d="m43.35 55.24a1 1 0 0 1 1.3 0l10.15 8.66 23.17-17.12-22.3-15.1a17.9226 17.9226 0 0 1 -23.34 0l-22.3 15.1 23.17 17.12zm5.65-17.24a1 1 0 0 1 2 0v8a1 1 0 0 1 -2 0zm-6 1a1 1 0 0 1 2 0v13a1 1 0 0 1 -2 0zm-6-1a1 1 0 0 1 2 0v8a1 1 0 0 1 -2 0z"/><path d="m10.369 86h67.262l-33.631-28.686z"/><path d="m43 14a1.0009 1.0009 0 0 0 -1 1v.5586a.9982.9982 0 0 0 .6836.9487l.3164.1054z"/><path d="m46 21v-.5586a.9982.9982 0 0 0 -.6836-.9487l-.3164-.1054v2.6127a1.0009 1.0009 0 0 0 1-1z"/><path d="m44 28a10 10 0 1 0 -10-10 10.0165 10.0165 0 0 0 10 10zm-1.95-9.6a2.9782 2.9782 0 0 1 -2.05-2.84v-.56a3.0088 3.0088 0 0 1 3-3v-1a1 1 0 0 1 2 0v1a3.0088 3.0088 0 0 1 3 3 1 1 0 0 1 -2 0 1.0029 1.0029 0 0 0 -1-1v3.28l.95.32a2.9782 2.9782 0 0 1 2.05 2.84v.56a3.0088 3.0088 0 0 1 -3 3v1a1 1 0 0 1 -2 0v-1a3.0088 3.0088 0 0 1 -3-3 1 1 0 0 1 2 0 1.0029 1.0029 0 0 0 1 1v-3.28z"/><path d="m44 34a16 16 0 1 0 -16-16 16.0212 16.0212 0 0 0 16 16zm0-28a12 12 0 1 1 -12 12 12.01 12.01 0 0 1 12-12z"/></g></svg>