<?xml version="1.0"?>
<svg xmlns="http://www.w3.org/2000/svg" viewBox="0 0 88 88" height="28" width="28" fill="#9854FF"><g id="Hand"><path d="M54,41A17,17,0,1,0,37,24,17.019,17.019,0,0,0,54,41ZM47,29a1,1,0,0,1,2,0v.1279A3.877,3.877,0,0,0,52.8726,33H53V24.8472l-1.0933-.1822A5.8725,5.8725,0,0,1,52.8726,13H53V10.75a1,1,0,0,1,2,0V13h.1274A5.8786,5.8786,0,0,1,61,18.8721V19a1,1,0,0,1-2,0v-.1279A3.877,3.877,0,0,0,55.1274,15H55v8.1528l1.0933.1822A5.8725,5.8725,0,0,1,55.1274,35H55v1.75a1,1,0,0,1-2,0V35h-.1274A5.8786,5.8786,0,0,1,47,29.1279Z"/><path d="M53,15h-.1274a3.8726,3.8726,0,0,0-.6368,7.6924L53,22.82Z"/><path d="M59,29.1279a3.86,3.86,0,0,0-3.2358-3.82L55,25.18V33h.1274A3.877,3.877,0,0,0,59,29.1279Z"/><path d="M54,47A23,23,0,1,0,31,24,23.0259,23.0259,0,0,0,54,47ZM54,5A19,19,0,1,1,35,24,19.0216,19.0216,0,0,1,54,5Z"/><path d="M53,51V62a1,1,0,0,0,2,0V51a1,1,0,0,0-2,0Z"/><path d="M60,49v9a1,1,0,0,0,2,0V49a1,1,0,0,0-2,0Z"/><path d="M46,49v9a1,1,0,0,0,2,0V49a1,1,0,0,0-2,0Z"/><circle cx="9" cy="70" r="1"/><path d="M3,64V86a1.0029,1.0029,0,0,0,1,1H14V63H4A1.0029,1.0029,0,0,0,3,64Zm6,3a3,3,0,1,1-3,3A3.0088,3.0088,0,0,1,9,67Z"/><path d="M84.32,69.36a5.08,5.08,0,0,0-5.94-2.34l-15.5,4.82A7.5146,7.5146,0,0,1,55.5,78H37a1,1,0,0,1,0-2H55.5a5.5,5.5,0,0,0,0-11H37.47l-.67-.81a14.4356,14.4356,0,0,0-20.1-2.03l-.7.56V87H52.58a12.7593,12.7593,0,0,0,4.69-.88l24.46-9.47A5.0974,5.0974,0,0,0,84.32,69.36Z"/></g></svg>