<?xml version="1.0" encoding="iso-8859-1"?>
<!-- Generator: Adobe Illustrator 19.0.0, SVG Export Plug-In . SVG Version: 6.00 Build 0)  -->
<svg version="1.1" id="Capa_1" height="28" width="28" xmlns="http://www.w3.org/2000/svg" xmlns:xlink="http://www.w3.org/1999/xlink" x="0px" y="0px"
	 viewBox="0 0 512.003 512.003" style="enable-background:new 0 0 512.003 512.003;" xml:space="preserve">
<polygon style="fill:#9854FF;" points="311.016,326.484 224.008,433.492 367.016,350.484 "/>
<g>
	<path style="fill:#9854FF;" d="M505.352,4.532c-4.512-3.264-10.432-3.936-15.648-1.728l-416,192
		c-5.792,2.464-9.6,8.128-9.696,14.464c-0.064,6.304,3.552,12.096,9.312,14.752l384,192c2.112,0.96,4.416,1.472,6.688,1.472
		c2.784,0,5.568-0.704,8.064-2.176c4.512-2.624,7.424-7.296,7.872-12.48l32-384C512.424,13.236,509.928,7.796,505.352,4.532z"/>
	<path style="fill:#9854FF;" d="M188.936,495.348c-5.952,0-11.648-3.328-14.432-9.024c-3.84-7.968-0.512-17.536,7.424-21.376
		c8-3.872,11.872-6.976,12.576-7.744c3.072-8.288,11.52-11.104,19.776-8.096c8.288,3.072,11.776,13.664,8.704,21.952
		c-1.056,2.912-4.32,11.68-27.136,22.72C193.64,494.836,191.272,495.348,188.936,495.348z"/>
	<path style="fill:#9854FF;" d="M123.976,510.484h-1.152c-19.712,0-38.048-3.84-54.528-11.424
		c-8.032-3.712-11.52-13.216-7.84-21.216c3.712-8.032,13.216-11.488,21.248-7.84c12.224,5.664,26.048,8.512,41.12,8.512
		c8.832,0,16.576,7.168,16.576,16S132.808,510.484,123.976,510.484z"/>
	<path style="fill:#9854FF;" d="M26.6,455.092c-5.472,0-10.784-2.816-13.792-7.84c-4.224-7.136-8.128-15.04-11.648-23.744
		c-3.296-8.224,0.672-17.536,8.864-20.832c8.096-3.264,17.536,0.672,20.832,8.832c2.88,7.168,6.048,13.632,9.504,19.424
		c4.512,7.616,1.984,17.44-5.6,21.952C32.168,454.356,29.352,455.092,26.6,455.092z"/>
</g>
<polygon style="fill:#C096FF;" points="496.008,17.492 224.008,308.34 224.008,433.492 305.224,345.844 "/>
<g>
</g>
<g>
</g>
<g>
</g>
<g>
</g>
<g>
</g>
<g>
</g>
<g>
</g>
<g>
</g>
<g>
</g>
<g>
</g>
<g>
</g>
<g>
</g>
<g>
</g>
<g>
</g>
<g>
</g>
</svg>
