<svg id="Layer_1" viewBox="0 0 512 512" height="28" width="28" xmlns="http://www.w3.org/2000/svg" xmlns:xlink="http://www.w3.org/1999/xlink" data-name="Layer 1"><linearGradient id="GradientFill_1" gradientUnits="userSpaceOnUse" x1="256" x2="256" y1="440.018" y2="71.982"><stop offset="0" stop-color="#C096FF"/><stop offset="1" stop-color="#9854FF"/></linearGradient><path d="m68.285 212.29 3.68-3.727v141.437a90.121 90.121 0 0 0 90.015 90.015h82.467a40.007 40.007 0 0 0 0-80.013h-82.467a10.131 10.131 0 0 1 -10-10v-141.439l3.727 3.727a40 40 0 0 0 56.567-56.567l-71.996-71.993a40.006 40.006 0 0 0 -56.566 0l-71.993 71.993a40 40 0 0 0 56.566 56.567zm159.273-100.3a40 40 0 0 1 40.006-40.007h82.42a90.122 90.122 0 0 1 90.016 90.017v141.437l3.727-3.727a39.982 39.982 0 1 1 56.519 56.567l-71.994 71.993a39.922 39.922 0 0 1 -56.566 0l-71.994-71.993a40 40 0 0 1 56.567-56.567l3.727 3.727v-141.437a10.131 10.131 0 0 0 -10-10h-82.42a40 40 0 0 1 -40.008-40.01z" fill="url(#GradientFill_1)" fill-rule="evenodd"/></svg>