<svg id="Capa_1" enable-background="new 0 0 512 512" viewBox="0 0 512 512" height="28" width="28" fill="#9854FF"
    xmlns="http://www.w3.org/2000/svg">
    <g>
        <path
            d="m465.876 266.483c3.916-3.894 3.934-10.226.04-14.142s-10.226-3.935-14.142-.04c-3.916 3.894-3.934 10.226-.04 14.142s10.225 3.934 14.142.04z" />
        <path
            d="m61.431 153.748c.037-21.869 7.667-37.879 12.212-45.475 2.841-4.749 1.295-10.901-3.454-13.743-4.749-2.841-10.901-1.295-13.742 3.454-5.604 9.365-15.01 29.058-15.056 55.729-.046 26.859 9.413 46.689 15.056 56.119 1.877 3.137 5.199 4.876 8.608 4.876 1.75 0 3.523-.459 5.135-1.423 4.749-2.841 6.295-8.994 3.453-13.743-4.577-7.648-12.25-23.769-12.212-45.794z" />
        <path
            d="m150.226 81.184c-5.533 0-10.02 4.486-10.02 10.02v4.443h-18.624c-5.533 0-10.02 4.486-10.02 10.02v47.327 47.326c0 5.534 4.486 10.02 10.02 10.02h18.624v4.066c0 5.534 4.486 10.02 10.02 10.02s10.02-4.486 10.02-10.02v-4.066h11.469c8.99 0 17.448-3.502 23.819-9.864 6.361-6.361 9.864-14.82 9.864-23.818 0-12.533-6.886-23.482-17.069-29.282 3.405-5.345 5.237-11.552 5.237-18.045 0-18.451-14.915-33.477-33.32-33.674v-4.452c0-5.535-4.487-10.021-10.02-10.021zm31.142 105.116c-2.583 2.58-6.011 4-9.654 4h-40.113v-27.287h28.281 11.832c7.523 0 13.644 6.12 13.644 13.643 0 3.646-1.419 7.072-3.99 9.644zm-7.842-56.97c0 3.646-1.419 7.072-3.99 9.644-2.583 2.579-6.012 4-9.654 4h-28.281v-27.288h28.281c7.524 0 13.644 6.121 13.644 13.644z" />
        <path
            d="m251.988 209.833c5.604-9.365 15.01-29.059 15.055-55.729.046-26.855-9.412-46.687-15.054-56.118-2.841-4.748-8.99-6.296-13.743-3.454-4.749 2.841-6.296 8.993-3.455 13.742 4.577 7.651 12.25 23.775 12.212 45.797-.037 21.869-7.666 37.878-12.211 45.475-2.841 4.749-1.295 10.901 3.454 13.743 1.612.964 3.384 1.423 5.134 1.423 3.409-.003 6.732-1.742 8.608-4.879z" />
        <path
            d="m199.852 234.483c-7.631 4.566-23.691 12.212-45.634 12.212-.053 0-.109 0-.161 0-21.871-.037-37.879-7.667-45.475-12.212-4.749-2.842-10.902-1.296-13.743 3.454-2.841 4.749-1.296 10.901 3.453 13.742 9.365 5.603 29.058 15.01 55.731 15.055h.194c26.758 0 46.518-9.427 55.925-15.055 4.749-2.841 6.295-8.994 3.453-13.742-2.84-4.748-8.99-6.296-13.743-3.454z" />
        <path
            d="m210.142 56.138c-9.365-5.603-29.058-15.01-55.731-15.055-.066 0-.128 0-.194 0-26.758 0-46.518 9.427-55.925 15.055-4.749 2.841-6.295 8.994-3.453 13.742 2.841 4.749 8.992 6.297 13.743 3.454 7.631-4.566 23.691-12.212 45.634-12.212h.161c21.871.037 37.879 7.667 45.475 12.212 1.612.964 3.385 1.423 5.135 1.423 3.408 0 6.731-1.739 8.608-4.877 2.841-4.748 1.295-10.901-3.453-13.742z" />
        <path
            d="m275.595 300.922c-4.75-2.84-10.901-1.295-13.742 3.454-5.604 9.365-15.01 29.059-15.055 55.73-.046 26.86 9.413 46.689 15.055 56.119 1.877 3.137 5.199 4.876 8.608 4.876 1.75 0 3.523-.459 5.135-1.423 4.749-2.841 6.295-8.994 3.453-13.743-4.576-7.649-12.249-23.769-12.211-45.796.037-21.869 7.666-37.879 12.211-45.475 2.841-4.748 1.295-10.9-3.454-13.742z" />
        <path
            d="m494.863 289.779c-2.516-4.928-8.553-6.882-13.48-4.365-4.928 2.517-6.883 8.553-4.365 13.481 9.588 18.773 14.45 39.062 14.45 60.302 0 73.206-59.558 132.765-132.764 132.765-73.207 0-132.765-59.558-132.765-132.765s59.558-132.765 132.765-132.765c21.361 0 41.751 4.914 60.605 14.606 4.92 2.529 10.962.591 13.492-4.33s.591-10.962-4.33-13.492c-21.41-11.006-45.534-16.823-69.767-16.823-25.167 0-48.931 6.12-69.887 16.944 11.033-21.114 17.284-45.105 17.284-70.532 0-84.257-68.548-152.805-152.805-152.805s-152.803 68.548-152.803 152.804 68.547 152.804 152.803 152.804c25.167 0 48.931-6.12 69.887-16.944-11.033 21.113-17.284 45.105-17.284 70.532 0 84.256 68.548 152.804 152.804 152.804s152.803-68.547 152.803-152.804c.001-24.439-5.599-47.794-16.643-69.417zm-474.331-136.975c0-73.207 59.558-132.765 132.764-132.765 73.207 0 132.765 59.558 132.765 132.765 0 73.206-59.558 132.765-132.765 132.765-73.206 0-132.764-59.558-132.764-132.765z" />
        <path
            d="m443.652 419.678c1.612.964 3.385 1.423 5.135 1.423 3.408 0 6.731-1.739 8.608-4.877 5.604-9.364 15.01-29.057 15.055-55.729.046-26.861-9.413-46.69-15.055-56.119-2.84-4.747-8.989-6.296-13.743-3.453-4.749 2.841-6.295 8.994-3.453 13.743 4.576 7.649 12.249 23.769 12.211 45.796-.037 21.87-7.666 37.879-12.211 45.475-2.842 4.747-1.296 10.9 3.453 13.741z" />
        <path
            d="m300.247 444.329c-2.841 4.749-1.296 10.901 3.453 13.742 9.365 5.603 29.057 15.01 55.73 15.055h.194c26.761 0 46.519-9.427 55.925-15.055 4.749-2.841 6.295-8.994 3.453-13.743s-8.994-6.295-13.743-3.453c-7.63 4.566-23.688 12.212-45.634 12.212-.053 0-.109 0-.161 0-21.87-.037-37.878-7.667-45.474-12.212-4.75-2.841-10.903-1.295-13.743 3.454z" />
        <path
            d="m415.548 262.53c-9.365-5.603-29.057-15.01-55.73-15.055-.066 0-.128 0-.194 0-26.758 0-46.518 9.427-55.925 15.055-4.749 2.841-6.295 8.994-3.453 13.742 1.877 3.137 5.199 4.877 8.608 4.877 1.75 0 3.523-.459 5.135-1.423 7.631-4.566 23.69-12.212 45.634-12.212h.161c21.87.037 37.878 7.667 45.474 12.212 4.749 2.842 10.901 1.296 13.743-3.454 2.841-4.749 1.295-10.901-3.453-13.742z" />
        <path
            d="m168.825 468.102c-50.984-15.242-86.62-60.036-91.479-112.384l15.92 10.587c4.603 3.064 10.827 1.815 13.891-2.794 3.064-4.608 1.813-10.827-2.795-13.891l-31.906-21.22c-3.935-2.613-9.36-2.064-12.681 1.307l-27.177 27.552c-3.886 3.939-3.842 10.283.097 14.169 1.952 1.926 4.494 2.887 7.036 2.887 2.587 0 5.173-.996 7.133-2.983l10.814-10.962c6.591 59.2 47.402 109.592 105.407 126.933 5.46 1.633 11.304-1.77 12.62-7.299 1.213-5.095-1.869-10.404-6.88-11.902z" />
        <path
            d="m343.827 45.333c50.984 15.242 86.62 60.036 91.479 112.384l-15.92-10.587c-4.604-3.063-10.827-1.813-13.891 2.795s-1.813 10.827 2.796 13.891l31.906 21.218c3.939 2.629 9.356 2.06 12.681-1.307l27.177-27.551c3.887-3.939 3.842-10.283-.097-14.169s-10.284-3.843-14.169.097l-10.814 10.963c-6.591-59.199-47.402-109.592-105.408-126.933-5.23-1.566-10.907 1.5-12.47 6.73s1.499 10.905 6.73 12.469z" />
        <path
            d="m371.192 350.342c-8.176-2.89-17.209-6.374-22.219-10.304-1.348-1.057-1.91-3.589-1.399-6.301.261-1.387 1.478-6.022 6.165-7.434 10.539-3.177 21.049 3.243 21.347 3.428 4.635 2.972 10.803 1.646 13.808-2.975 3.016-4.64 1.699-10.846-2.941-13.862-.466-.303-7.632-4.871-17.79-6.725v-2.713c0-5.534-4.486-10.02-10.02-10.02s-10.02 4.486-10.02 10.02v3.613c-.055.016-.11.029-.165.046-10.306 3.105-18 11.884-20.078 22.911-1.918 10.177 1.426 20.055 8.724 25.779 7.271 5.703 17.71 9.825 27.908 13.43 8.263 2.921 8.505 9.256 7.914 12.772-.981 5.836-5.89 12.141-14.35 12.198-8.695.065-11.215-.336-17.822-4.657-4.632-3.03-10.841-1.729-13.87 2.9-3.028 4.631-1.73 10.841 2.901 13.87 7.156 4.681 12.5 6.687 18.839 7.474v3.352c0 5.534 4.486 10.02 10.02 10.02s10.02-4.486 10.02-10.02v-4.37c13.461-4.046 22.071-15.825 24.025-27.445 2.616-15.562-5.822-29.622-20.997-34.987z" />
    </g>
</svg>