<?xml version="1.0" encoding="iso-8859-1"?>
<!-- Generator: Adobe Illustrator 19.0.0, SVG Export Plug-In . SVG Version: 6.00 Build 0)  -->
<svg version="1.1" id="Capa_1" xmlns="http://www.w3.org/2000/svg" xmlns:xlink="http://www.w3.org/1999/xlink" x="0px" y="0px"
	 viewBox="0 0 448.25 448.25" style="enable-background:new 0 0 448.25 448.25;" xml:space="preserve">
<g>
	<g>
		<path d="M442.4,254.157c-30.16-20.464-52.656,7.776-143.584,81.632l-83.888,0.016c-3.824,0-6.928-3.104-6.928-6.928
			c0-6.528,2.848-9.072,6.928-9.072h51.84c17.68,0,37.472-11.52,37.472-32c0-21.76-19.792-32-37.472-32
			c-32.496,0-55.888,2.32-70.992-5.76c-12.8-6.544-27.552-10.256-43.296-10.256c-26.432,0-50.096,10.544-66.32,27.168L0,351.789
			l96,96l32-32h162.032c16.128,0,31.696-5.92,43.744-16.624l109.712-123.072C450.192,270.141,449.808,259.197,442.4,254.157z
			 M322.496,387.741c-9.04,7.76-20.544,12.016-32.464,12.016c-57.872,0-110.336,0-168.656,0c-8.4,8.4-16.848,16.848-25.376,25.376
			l-73.28-73.28l74.896-73.744c13.84-14.176,33.84-22.32,54.864-22.32c12.672,0,25.136,2.928,35.744,8.336
			c17.968,9.616,37.104,7.648,78.544,7.648c0.208,0,21.472,0.176,21.472,16c0,10.912-12.816,16-21.472,16h-51.84
			c-12.032,0-22.928,8.944-22.928,25.072c0,12.672,10.256,22.928,22.928,22.928c19.472,0,71.808-0.016,89.568-0.016
			c95.584-77.648,108.24-94.784,126.544-85.776L322.496,387.741z"/>
	</g>
</g>
<g>
	<g>
		<path d="M323.968,128.557c-13.424,0-27.472,7.36-35.248,19.6c-5.488,7.84-9.2,22.112-6.528,32.768
			c-5.424,4.272-10.4,9.12-14.832,14.496c1.472-34.176,3.696-55.584,6.272-71.488c18.624,0.496,36.464-15.872,45.648-33.584
			c18.8-33.632,10.08-68.128,7.28-89.888c-14.688,14.304-78.832-2.464-104.272,41.12c-11.232,19.248-7.92,44.288,3.856,59.824
			c5.728,7.552,17.552,14.752,23.84,17.776c-3.552,19.856-6.56,47.728-8.032,101.76c-0.24,8.944,6.944,16.352,15.856,16.352
			c0.064,0,0.128,0,0.208,0c6.528-0.08,12.112-4.224,14.608-10.24c3.808-9.152,10.016-18.624,20.112-27.312
			c9.248,9.856,19.888,14.384,31.056,14.384c15.776,0,32.432-9.408,44.176-29.712c10.96-18.944,15.872-23.952,16-24.08
			C370.832,154.429,348.656,128.557,323.968,128.557z M252.256,102.237c-5.28-3.104-10.896-7.248-13.36-10.496
			c-7.488-9.888-11.008-28-2.784-42.096c12.176-20.88,38.208-23.408,61.168-25.648c5.728-0.56,11.184-1.088,16.256-1.904
			c2.416,18.512,3.264,39.904-8.448,60.896c-6.288,12.16-18.736,25.28-32.192,24.912c-0.336-26.032,4.704-48.912,15.232-66.528
			C270.032,47.581,257.552,73.405,252.256,102.237z M354.144,176.381c-7.984,13.808-19.04,21.728-30.336,21.728
			c-10.656,0-15.584-5.28-22.272-12.432c11.68-10.048,25.696-17.456,41.456-20.8c-16.384-0.208-31.76,3.92-45.344,11.04
			c-0.96-5.776,1.312-14.48,4.592-19.2c4.944-7.776,14.144-12.192,21.744-12.192c12.416,0,27.456,12.352,37.376,19.904
			C359.248,167.757,356.848,171.693,354.144,176.381z"/>
	</g>
</g>
<g>
	<g>
		<path d="M225.072,151.293c-7.136-14.048-20.656-22.496-36.528-22.496c-11.616,0-24.48,4.528-37.024,14.72
			c-16.992,13.792-23.376,16.736-23.536,16.8c11.2,11.2,23.984,48.768,51.904,52.928c11.824,2.144,23.824-0.96,32.784-7.632
			c6.928-4.704,16.208-16.464,17.744-27.76C231.568,169.453,229.488,158.733,225.072,151.293z M203.136,192.781
			c-5.52,4.112-12.832,6.064-20.88,4.64c-13.568-2.016-24.352-21.216-31.632-32.912c3.136-2.336,6.768-5.152,10.976-8.576
			c8.976-7.28,18.288-11.136,26.928-11.136c12.816,0,21.808,8.656,25.008,20.368c-14.4-3.856-29.792-4.688-45.328-1.184
			c16.8,0,32.464,4.544,46.192,12.176C213.36,182.253,207.376,189.885,203.136,192.781z"/>
	</g>
</g>
<g>
</g>
<g>
</g>
<g>
</g>
<g>
</g>
<g>
</g>
<g>
</g>
<g>
</g>
<g>
</g>
<g>
</g>
<g>
</g>
<g>
</g>
<g>
</g>
<g>
</g>
<g>
</g>
<g>
</g>
</svg>
